<svg width="1074.392" height="584.231" xmlns="http://www.w3.org/2000/svg" data-name="Layer 1">
 <title>page not found</title>

 <g>
  <title>Layer 1</title>
  <ellipse id="svg_1" fill="#f2f2f2" ry="34.9216" rx="527.5" cy="549.3094" cx="540.64346"/>
  <path id="svg_2" fill="#1f2937" d="m520.42569,167.00973c-85.94407,0 -147.651,55.13938 -147.651,183.79791c0,145.813 61.70691,184.41057 147.651,184.41057s151.327,-42.27352 151.327,-184.41057c-0.00005,-151.9396 -65.38293,-183.79791 -151.327,-183.79791zm0.56495,319.80837c-59.52686,0 -90.62592,-34.92288 -90.62592,-135.9163c0,-89.11185 32.37209,-136.10461 91.899,-136.10461s91.899,30.86774 91.899,136.10461c-0.00009,98.44736 -33.64522,135.9163 -93.17208,135.9163z"/>
  <path id="svg_3" fill="#ffcd69" d="m321.31131,433.5167l-35.53431,0l0,-104.63938a20.95585,20.95585 0 0 0 -20.95583,-20.95583l-8.32638,0a20.95585,20.95585 0 0 0 -20.95586,20.95585l0,104.63936l-100.23008,0a11.96327,11.96327 0 0 1 -10.57763,-17.552l106.0824,-200.78034a20.95585,20.95585 0 0 0 -9.58038,-28.73887l-6.26231,-2.9572a20.95585,20.95585 0 0 0 -27.4293,9.07005l-129.38147,242.03255a28.41578,28.41578 0 0 0 -3.35584,13.39612l0,0a28.41583,28.41583 0 0 0 28.41584,28.41583l152.31877,0l0,66.16727a25.119,25.119 0 0 0 25.119,25.119l0.00005,0a25.119,25.119 0 0 0 25.119,-25.119l0,-66.16723l35.53428,0a21.44307,21.44307 0 0 0 21.44307,-21.44307l0,0a21.44307,21.44307 0 0 0 -21.44302,-21.44311z"/>
  <path id="svg_4" fill="#f8b92a" d="m979.30783,433.5167l-35.53428,0l0,-104.63938a20.95585,20.95585 0 0 0 -20.95586,-20.95583l-8.32638,0a20.95585,20.95585 0 0 0 -20.95586,20.95585l0,104.63936l-100.23008,0a11.96326,11.96326 0 0 1 -10.57763,-17.552l106.08239,-200.7803a20.95586,20.95586 0 0 0 -9.58037,-28.73891l-6.26231,-2.9572a20.95586,20.95586 0 0 0 -27.42931,9.07005l-129.38146,242.03255a28.41578,28.41578 0 0 0 -3.35584,13.39612l0,0a28.41583,28.41583 0 0 0 28.41583,28.41583l152.31878,0l0,66.16727a25.119,25.119 0 0 0 25.119,25.119l0,0a25.119,25.119 0 0 0 25.119,-25.119l0,-66.16723l35.53428,0a21.44307,21.44307 0 0 0 21.44307,-21.44307l0,0a21.44307,21.44307 0 0 0 -21.44297,-21.44311z"/>
  <path id="svg_5" stroke-miterlimit="10" stroke="#3f3d56" fill="none" d="m331.11387,421.26349l-35.53429,0l0,-104.63936a20.95585,20.95585 0 0 0 -20.95585,-20.95586l-8.32638,0a20.95586,20.95586 0 0 0 -20.95586,20.95586l0,104.63936l-100.23008,0a11.96327,11.96327 0 0 1 -10.57763,-17.552l106.08239,-200.78028a20.95586,20.95586 0 0 0 -9.58037,-28.73893l-6.26231,-2.9572a20.95586,20.95586 0 0 0 -27.42931,9.07l-129.38146,242.03261a28.41582,28.41582 0 0 0 -3.35584,13.39613l0,0a28.41583,28.41583 0 0 0 28.41583,28.41583l152.31878,0l0,66.16727a25.119,25.119 0 0 0 25.119,25.119l0.00005,0a25.119,25.119 0 0 0 25.119,-25.119l0,-66.16723l35.53429,0a21.44307,21.44307 0 0 0 21.44307,-21.44307l0,0a21.44307,21.44307 0 0 0 -21.44303,-21.44313z"/>
  <path id="svg_6" stroke-miterlimit="10" stroke="#3f3d56" fill="none" d="m997.68762,421.26349l-35.53428,0l0,-104.63936a20.95586,20.95586 0 0 0 -20.95586,-20.95586l-8.32638,0a20.95586,20.95586 0 0 0 -20.95586,20.95586l0,104.63936l-100.23008,0a11.96327,11.96327 0 0 1 -10.57763,-17.552l106.08239,-200.78028a20.95586,20.95586 0 0 0 -9.58037,-28.73893l-6.26231,-2.9572a20.95586,20.95586 0 0 0 -27.42931,9.07l-129.38146,242.03261a28.41582,28.41582 0 0 0 -3.35584,13.39613l0,0a28.41583,28.41583 0 0 0 28.41583,28.41583l152.31878,0l0,66.16727a25.119,25.119 0 0 0 25.119,25.119l0,0a25.119,25.119 0 0 0 25.119,-25.119l0,-66.16723l35.53428,0a21.44307,21.44307 0 0 0 21.44307,-21.44307l0,0a21.44307,21.44307 0 0 0 -21.44297,-21.44313z"/>
  <path id="svg_7" stroke-miterlimit="10" stroke="#3f3d56" fill="none" d="m540.0308,155.98186c-85.94407,0 -147.651,55.13937 -147.651,183.79791c0,145.813 61.70691,184.41057 147.651,184.41057s151.327,-42.27352 151.327,-184.41057c-0.00005,-151.93961 -65.38293,-183.79791 -151.327,-183.79791zm0.565,319.80836c-59.52686,0 -90.62592,-34.92287 -90.62592,-135.91629c0,-89.11185 32.37209,-136.10461 91.899,-136.10461s91.899,30.86774 91.899,136.10461c-0.00014,98.44735 -33.64527,135.91629 -93.17213,135.91629l0.00005,0z"/>
  <path id="svg_11" fill="#3f3d56" d="m576.24219,184.18875c-0.77711,3.19345 -4.12792,5.751 -7.83881,7.53791c-7.80188,3.75682 -17.4253,4.87788 -26.7597,5.25418a45.17622,45.17622 0 0 1 -7.1445,-0.132a20.5371,20.5371 0 0 1 -12.25052,-5.63141a1.68086,1.68086 0 0 1 0.04371,-2.84388c4.9694,-5.45888 13.2622,-8.80605 21.61613,-11.21609c6.3344,-1.82743 17.3813,-6.56089 24.29013,-5.9221c6.69181,0.61877 9.02477,8.92125 8.04356,12.95339z"/>
  <path id="svg_12" opacity="0.1" d="m576.24219,184.18875c-0.77711,3.19345 -4.12792,5.751 -7.83881,7.53791c-7.80188,3.75682 -17.4253,4.87788 -26.7597,5.25418a45.17622,45.17622 0 0 1 -7.1445,-0.132a20.5371,20.5371 0 0 1 -12.25052,-5.63141a1.68086,1.68086 0 0 1 0.04371,-2.84388c4.9694,-5.45888 13.2622,-8.80605 21.61613,-11.21609c6.3344,-1.82743 17.3813,-6.56089 24.29013,-5.9221c6.69181,0.61877 9.02477,8.92125 8.04356,12.95339z"/>
  <path id="svg_26" fill="#fbbebe" d="m611.08558,133.75591s3.25228,9.37161 6.229,6.87633l-2.37258,-12.24982l-3.85642,5.37349z"/>
  <path id="svg_27" fill="#57b894" d="m1006.86381,419.54963a20.81252,20.81252 0 1 0 2.7716,-39.91524l0.52093,10.7122l-5.06814,-9.18045a20.734,20.734 0 0 0 -10.68367,11.72261a20.40847,20.40847 0 0 0 -1.19713,5.62986a20.80856,20.80856 0 0 0 13.65641,21.03102z"/>
  <path id="svg_28" stroke-miterlimit="10" stroke="#3f3d56" fill="none" d="m1031.94116,543.79305c-1.78906,-9.11027 5.9633,-17.1868 13.62086,-22.43651s16.605,-10.40779 19.21775,-19.31684c3.755,-12.80387 -7.43,-24.52981 -16.13564,-34.64176a125.30044,125.30044 0 0 1 -16.52359,-24.55738c-1.81107,-3.5325 -3.47558,-7.22528 -3.95221,-11.16626c-0.68641,-5.67546 1.13693,-11.32309 2.9739,-16.73673q9.17925,-27.05169 19.62843,-53.65005"/>
  <path id="svg_29" stroke-miterlimit="10" stroke="#3f3d56" fill="none" d="m1007.72093,416.79169a20.81252,20.81252 0 1 0 2.7716,-39.91524l0.52093,10.7122l-5.06815,-9.18045a20.734,20.734 0 0 0 -10.68366,11.72261a20.40847,20.40847 0 0 0 -1.19713,5.62986a20.80855,20.80855 0 0 0 13.65641,21.03102z"/>
  <path id="svg_30" fill="#57b894" d="m1029.39736,357.58815a20.78819,20.78819 0 0 1 14.97993,-13.19764l1.71361,10.18378l3.177,-10.69566a20.81,20.81 0 1 1 -19.87057,13.70952l0.00003,0z"/>
  <path id="svg_31" stroke-miterlimit="10" stroke="#3f3d56" fill="none" d="m1030.54018,353.91089a20.7882,20.7882 0 0 1 14.97993,-13.19763l1.71361,10.18378l3.177,-10.69567a20.81,20.81 0 1 1 -19.87057,13.70952l0.00003,0z"/>
  <path id="svg_32" fill="#57b894" d="m1044.99074,467.60434a20.81,20.81 0 0 0 18.419,-37.02267l-2.44121,8.21926l-1.73105,-10.30382a0.36183,0.36183 0 0 0 -0.053,-0.0201a20.81113,20.81113 0 1 0 -14.1938,39.12733l0.00006,0z"/>
  <path id="svg_33" stroke-miterlimit="10" stroke="#3f3d56" fill="none" d="m1045.981,463.87966a20.81,20.81 0 0 0 18.419,-37.02267l-2.44121,8.21926l-1.73105,-10.30382a0.3621,0.3621 0 0 0 -0.053,-0.0201a20.81113,20.81113 0 1 0 -14.1938,39.12733l0.00006,0z"/>
  <path id="svg_34" fill="#57b894" d="m1023.32382,502.16697a20.80131,20.80131 0 1 0 4.01058,-16.29737l9.27267,13.95654l-12.66994,-7.40768a20.61638,20.61638 0 0 0 -0.61331,9.74851z"/>
  <path id="svg_35" stroke-miterlimit="10" stroke="#3f3d56" fill="none" d="m1024.18094,499.40903a20.80131,20.80131 0 1 0 4.01058,-16.29737l9.27267,13.95655l-12.66994,-7.40769a20.61626,20.61626 0 0 0 -0.61331,9.74851z"/>
  <path id="svg_36" fill="#57b894" d="m9.00746,470.24874a13.67421,13.67421 0 1 0 1.821,-26.225l0.34227,7.03811l-3.32987,-6.03172a13.62263,13.62263 0 0 0 -7.01936,7.702a13.40883,13.40883 0 0 0 -0.78654,3.69893a13.6716,13.6716 0 0 0 8.9725,13.81768z"/>
  <path id="svg_37" stroke-miterlimit="10" stroke="#3f3d56" fill="none" d="m25.48374,551.87893c-1.17545,-5.98561 3.918,-11.292 8.94915,-14.7412s10.90978,-6.8381 12.62642,-12.69151c2.46711,-8.41238 -4.88167,-16.11653 -10.60142,-22.76027a82.32442,82.32442 0 0 1 -10.85629,-16.13465a22.20962,22.20962 0 0 1 -2.59668,-7.33643c-0.451,-3.72888 0.747,-7.43947 1.95391,-10.99634q6.03093,-17.77346 12.89623,-35.24906"/>
  <path id="svg_38" stroke-miterlimit="10" stroke="#3f3d56" fill="none" d="m9.57061,468.43672a13.6742,13.6742 0 1 0 1.821,-26.225l0.34227,7.03812l-3.32988,-6.03177a13.62262,13.62262 0 0 0 -7.01936,7.702a13.40912,13.40912 0 0 0 -0.78654,3.69892a13.67158,13.67158 0 0 0 8.97251,13.81773z"/>
  <path id="svg_39" fill="#57b894" d="m23.81241,429.53892a13.65822,13.65822 0 0 1 9.84209,-8.67109l1.12587,6.69093l2.08737,-7.02725a13.67252,13.67252 0 1 1 -13.05533,9.00741z"/>
  <path id="svg_40" stroke-miterlimit="10" stroke="#3f3d56" fill="none" d="m24.56327,427.12289a13.65822,13.65822 0 0 1 9.84209,-8.67108l1.12587,6.69093l2.08737,-7.02725a13.67252,13.67252 0 1 1 -13.05533,9.0074z"/>
  <path id="svg_41" fill="#57b894" d="m34.05755,501.82156a13.67255,13.67255 0 0 0 12.10164,-24.32457l-1.60392,5.4002l-1.13733,-6.76979a0.238,0.238 0 0 0 -0.0348,-0.0132a13.67329,13.67329 0 1 0 -9.32559,25.70736z"/>
  <path id="svg_42" stroke-miterlimit="10" stroke="#3f3d56" fill="none" d="m34.70814,499.37438a13.67255,13.67255 0 0 0 12.10164,-24.32457l-1.60392,5.4002l-1.13733,-6.7698a0.238,0.238 0 0 0 -0.0348,-0.0132a13.67329,13.67329 0 1 0 -9.32559,25.70737z"/>
  <path id="svg_43" fill="#57b894" d="m19.822,524.52984a13.66684,13.66684 0 1 0 2.635,-10.70767l6.09231,9.16971l-8.32438,-4.867a13.54535,13.54535 0 0 0 -0.40293,6.40496z"/>
  <path id="svg_44" stroke-miterlimit="10" stroke="#3f3d56" fill="none" d="m20.38513,522.71782a13.66684,13.66684 0 1 0 2.635,-10.70767l6.09231,9.16971l-8.32439,-4.867a13.54535,13.54535 0 0 0 -0.40292,6.40496z"/>
  <ellipse id="svg_45" fill="#2f2e41" ry="22" rx="17" cy="319.1155" cx="480.946"/>
  <ellipse id="svg_46" fill="#2f2e41" ry="22" rx="17" cy="319.6155" cx="573.446"/>
  <path id="svg_47" fill="#2f2e41" d="m560.446,384.61549c0,9.94 -13.88,18 -31,18s-31,-8.06 -31,-18c0,-8.61 10.41,-15.81 24.32,-17.57a50.10353,50.10353 0 0 1 6.68,-0.43a50.69869,50.69869 0 0 1 11.13,1.2c11.62,2.59 19.87,9.14 19.87,16.8z"/>
  <ellipse id="svg_48" stroke-miterlimit="10" stroke="#3f3d56" fill="none" ry="22" rx="17" cy="314.1155" cx="484.946"/>
  <ellipse id="svg_49" stroke-miterlimit="10" stroke="#3f3d56" fill="none" ry="22" rx="17" cy="314.6155" cx="577.446"/>
  <ellipse id="svg_50" stroke-miterlimit="10" stroke="#3f3d56" fill="none" ry="18" rx="31" cy="379.6155" cx="533.446"/>
  <path id="svg_51" fill="#fff" d="m540.946,369.31549a4.93658,4.93658 0 0 1 -1.32,3.392a4.33873,4.33873 0 0 1 -3.18,1.408l-10,0a4.66433,4.66433 0 0 1 -4.5,-4.8a4.90458,4.90458 0 0 1 0.82,-2.74134a47.02,47.02 0 0 1 6.68,-0.45866a47.66454,47.66454 0 0 1 11.13,1.28a5.06656,5.06656 0 0 1 0.37,1.92z"/>
  <circle id="svg_52" fill="#fff" r="5" cy="308.1155" cx="484.946"/>
  <circle id="svg_53" fill="#fff" r="5" cy="308.1155" cx="577.946"/>
  <circle id="svg_54" opacity="0.3" fill="#6c63ff" r="5" cy="355.1155" cx="582.946"/>
  <circle id="svg_55" opacity="0.3" fill="#6c63ff" r="5" cy="355.1155" cx="460.946"/>
 </g>
</svg>