<svg width="806.0074799999999" height="609.71553" xmlns="http://www.w3.org/2000/svg" data-name="Layer 1">

 <g>
  <title>Layer 1</title>
  <path id="svg_1" fill="#f2f2f2" d="m657.57007,434.54786l-640.8385,0a16.51868,16.51868 0 0 1 -16.5,-16.5l0,-395.15381a12.10185,12.10185 0 0 1 12.08789,-12.08838l649.45349,0a12.31112,12.31112 0 0 1 12.29712,12.29736l0,394.94483a16.51867,16.51867 0 0 1 -16.5,16.5z"/>
  <path id="svg_2" fill="#fff" d="m636.85026,413.71554l-597.24475,0c-8.755,0 -15.87756,-6.66993 -15.87756,-14.86817l0,-344.105c0,-6.08008 5.278,-11.02685 11.76563,-11.02685l605.27368,0c6.59521,0 11.96069,5.02832 11.96069,11.20849l0,343.92336c0,8.19824 -7.1228,14.86817 -15.87769,14.86817z"/>
  <path id="svg_3" fill="#1f2937" d="m673.84033,24.9502l-673.84033,0l0,-8.40043a16.57377,16.57377 0 0 1 16.56006,-16.54981l640.72022,0a16.57369,16.57369 0 0 1 16.56005,16.54981l0,8.40043z"/>
  <circle id="svg_4" fill="#fff" r="4.28342" cy="12.5" cx="30.09536"/>
  <circle id="svg_5" fill="#fff" r="4.28342" cy="12.5" cx="46.35417"/>
  <circle id="svg_6" fill="#fff" r="4.28342" cy="12.5" cx="62.61297"/>
  <path id="svg_7" fill="#e6e6e6" d="m192.34807,97.76552l-105.55033,0a15.99572,15.99572 0 0 0 -16,16l0,71.83a15.99571,15.99571 0 0 0 16,16l105.5503,0a16.002,16.002 0 0 0 16,-16l0,-71.83a16.002,16.002 0 0 0 -15.99997,-16z"/>
  <path id="svg_8" fill="#e2a120" d="m266.79654,113.76177l0,71.8385a16,16 0 0 0 16,16l105.54786,0a16,16 0 0 0 16,-16l0,-71.8385a16,16 0 0 0 -16,-16l-105.54786,0a16,16 0 0 0 -16,16z"/>
  <path id="svg_9" fill="#e6e6e6" d="m462.79654,113.76177l0,71.8385a16,16 0 0 0 16,16l105.54786,0a16,16 0 0 0 16,-16l0,-71.8385a16,16 0 0 0 -16,-16l-105.54786,0a16,16 0 0 0 -16,16z"/>
  <path id="svg_10" fill="#f8b92a" d="m70.79654,272.76177l0,71.8385a16,16 0 0 0 16,16l105.54786,0a16,16 0 0 0 16,-16l0,-71.8385a16,16 0 0 0 -16,-16l-105.54786,0a16,16 0 0 0 -16,16z"/>
  <path id="svg_11" fill="#e6e6e6" d="m266.79654,272.76177l0,71.8385a16,16 0 0 0 16,16l105.54786,0a16,16 0 0 0 16,-16l0,-71.8385a16,16 0 0 0 -16,-16l-105.54786,0a16,16 0 0 0 -16,16z"/>
  <path id="svg_12" fill="#ffcd69" d="m462.79654,272.76177l0,71.8385a16,16 0 0 0 16,16l105.54786,0a16,16 0 0 0 16,-16l0,-71.8385a16,16 0 0 0 -16,-16l-105.54786,0a16,16 0 0 0 -16,16z"/>
  <circle id="svg_13" fill="#fff" r="22" cy="149.68102" cx="139.57047"/>
  <path id="svg_14" fill="#fff" d="m173.18791,203.59554l-67.23975,0a33.36821,33.36821 0 0 1 6.00977,-8.22a32.89139,32.89139 0 0 1 23.33008,-9.66l8.56006,0a32.988,32.988 0 0 1 29.33984,17.88z"/>
  <circle id="svg_15" fill="#fff" r="22" cy="149.68102" cx="335.57047"/>
  <path id="svg_16" fill="#fff" d="m369.18791,203.59554l-67.23975,0a33.36821,33.36821 0 0 1 6.00977,-8.22a32.89139,32.89139 0 0 1 23.33008,-9.66l8.56006,0a32.988,32.988 0 0 1 29.33984,17.88z"/>
  <circle id="svg_17" fill="#fff" r="22" cy="149.68102" cx="531.57047"/>
  <path id="svg_18" fill="#fff" d="m565.18791,203.59554l-67.23975,0a33.36821,33.36821 0 0 1 6.00977,-8.22a32.89139,32.89139 0 0 1 23.33008,-9.66l8.56006,0a32.988,32.988 0 0 1 29.33984,17.88z"/>
  <circle id="svg_19" fill="#fff" r="22" cy="308.68102" cx="139.57047"/>
  <path id="svg_20" fill="#fff" d="m173.18791,362.59554l-67.23975,0a33.36821,33.36821 0 0 1 6.00977,-8.22a32.89139,32.89139 0 0 1 23.33008,-9.66l8.56006,0a32.988,32.988 0 0 1 29.33984,17.88z"/>
  <circle id="svg_21" fill="#fff" r="22" cy="308.68102" cx="335.57047"/>
  <path id="svg_22" fill="#fff" d="m369.18791,362.59554l-67.23975,0a33.36821,33.36821 0 0 1 6.00977,-8.22a32.89139,32.89139 0 0 1 23.33008,-9.66l8.56006,0a32.988,32.988 0 0 1 29.33984,17.88z"/>
  <circle id="svg_23" fill="#fff" r="22" cy="308.68102" cx="531.57047"/>
  <path id="svg_24" fill="#fff" d="m565.18791,362.59554l-67.23975,0a33.36821,33.36821 0 0 1 6.00977,-8.22a32.89139,32.89139 0 0 1 23.33008,-9.66l8.56006,0a32.988,32.988 0 0 1 29.33984,17.88z"/>
  <path id="svg_25" fill="#3f3d56" d="m805.00748,609.71554l-261,0a1,1 0 0 1 0,-2l261,0a1,1 0 0 1 0,2z"/>
  <polygon id="svg_26" fill="#a0616a" points="670.716 597.522 658.457 597.521 652.624 550.233 670.718 550.234 670.716 597.522"/>
  <path id="svg_27" fill="#1f2937" d="m649.69935,594.01828l23.64387,0a0,0 0 0 1 0,0l0,14.88687a0,0 0 0 1 0,0l-38.53073,0a0,0 0 0 1 0,0l0,0a14.88686,14.88686 0 0 1 14.88686,-14.88687z"/>
  <polygon id="svg_28" fill="#a0616a" points="716.716 597.522 704.457 597.521 698.624 550.233 716.718 550.234 716.716 597.522"/>
  <path id="svg_29" fill="#1f2937" d="m695.69935,594.01828l23.64387,0a0,0 0 0 1 0,0l0,14.88687a0,0 0 0 1 0,0l-38.53073,0a0,0 0 0 1 0,0l0,0a14.88686,14.88686 0 0 1 14.88686,-14.88687z"/>
  <path id="svg_30" fill="#a0616a" d="m715.21889,456.68328a10.74271,10.74271 0 0 1 -2.06221,-16.343l-8.0725,-114.55784l23.253,2.25509l0.63868,112.18665a10.80091,10.80091 0 0 1 -13.757,16.45914l0.00003,-0.00004z"/>
  <path id="svg_31" fill="#1f2937" d="m668.47045,576.03237l-13.49637,-0.64355a4.499,4.499 0 0 1 -4.28587,-4.46289c-3.5581,-54.91919 -8.48584,-113.80722 -0.94189,-136.55664a4.5011,4.5011 0 0 1 5.14646,-4.48536l53.99366,7.83789a4.47385,4.47385 0 0 1 3.85353,4.41993c6.89356,26.9364 7.20508,75.78189 6.94434,126.53418a4.5005,4.5005 0 0 1 -4.5,4.53417l-14.55004,0a4.47887,4.47887 0 0 1 -4.44531,-3.80078l-8.97706,-57.06738a3.5,3.5 0 0 0 -6.93286,0.12793l-7.12622,59.60254a4.5171,4.5171 0 0 1 -4.46875,3.96582q-0.1062,0 -0.21362,-0.00586z"/>
  <path id="svg_32" fill="#ffcd69" d="m679.63809,439.81425c-11.89942,-6.61132 -21.197,-8.34863 -25.67994,-8.79589a4.41806,4.41806 0 0 1 -3.05346,-1.67286a4.47788,4.47788 0 0 1 -0.93115,-3.40136l12.9375,-96.05078a33.21916,33.21916 0 0 1 19.36352,-25.957a32.30591,32.30591 0 0 1 31.39551,2.46094q0.665,0.44238 1.30517,0.90332a33.17816,33.17816 0 0 1 12.6365,34.5732c-7.93359,32.45508 -10.65869,85.66211 -11.12451,95.999a4.46544,4.46544 0 0 1 -2.918,4.00488a45.08471,45.08471 0 0 1 -15.22583,2.71094a38.1245,38.1245 0 0 1 -18.70531,-4.77439z"/>
  <path id="svg_33" fill="#ffcd69" d="m710.34792,364.27542a4.4817,4.4817 0 0 1 -1.85872,-3.40065l-1.70385,-30.87615a12.39863,12.39863 0 0 1 24.34639,-3.92685l7.48456,27.60491a4.50507,4.50507 0 0 1 -3.16561,5.52076l-21.29065,5.77257a4.4829,4.4829 0 0 1 -3.81212,-0.69459z"/>
  <circle id="svg_34" fill="#a0616a" r="24.56103" cy="266.33344" cx="690.45974"/>
  <path id="svg_35" fill="#a0616a" d="m601.45603,314.58807a10.52582,10.52582 0 0 1 0.23929,1.64013l42.95745,24.782l10.44142,-6.01094l11.13116,14.57228l-22.33714,15.92056l-49.00792,-38.66268a10.49579,10.49579 0 1 1 6.57574,-12.24133l0,-0.00002z"/>
  <path id="svg_36" fill="#ffcd69" d="m646.18705,338.90286a4.48167,4.48167 0 0 1 1.29314,-3.65336l21.86341,-21.86849a12.39862,12.39862 0 0 1 19.16808,15.51622l-15.57,23.9922a4.50507,4.50507 0 0 1 -6.22447,1.32511l-18.5043,-12.00853a4.48291,4.48291 0 0 1 -2.02586,-3.30315z"/>
  <path id="svg_37" fill="#1f2937" d="m707.84035,285.76501c-4.582,4.88079 -13.09132,2.26067 -13.68835,-4.40717a8.05387,8.05387 0 0 1 0.01013,-1.55569c0.30826,-2.95357 2.01461,-5.63506 1.60587,-8.7536a4.59044,4.59044 0 0 0 -0.8401,-2.14892c-3.65125,-4.88933 -12.22228,2.18687 -15.6682,-2.23929c-2.113,-2.714 0.3708,-6.98713 -1.25066,-10.02051c-2.14005,-4.00358 -8.47881,-2.0286 -12.45388,-4.22116c-4.42275,-2.43948 -4.15821,-9.22524 -1.24686,-13.35269c3.55053,-5.03359 9.77573,-7.71951 15.92336,-8.10661s12.25292,1.27475 17.9923,3.51145c6.52108,2.54134 12.98768,6.05351 17.00066,11.78753c4.88022,6.97317 5.34986,16.34793 2.90917,24.50174c-1.4847,4.96005 -6.55178,11.01924 -10.29344,15.00492z"/>
 </g>
</svg>